<svg xmlns="http://www.w3.org/2000/svg" xmlns:xlink="http://www.w3.org/1999/xlink" width="500" zoomAndPan="magnify" viewBox="0 0 375 374.999991" height="500" preserveAspectRatio="xMidYMid meet" version="1.0"><defs><g/></defs><rect x="-37.5" width="450" fill="#ffffff" y="-37.499999" height="449.999989" fill-opacity="1"/><rect x="-37.5" width="450" fill="#ffffff" y="-37.499999" height="449.999989" fill-opacity="1"/><g fill="#373643" fill-opacity="1"><g transform="translate(20.256206, 184.514328)"><g><path d="M 7.378906 -23.035156 L 7.378906 -14.546875 L 21.03125 -14.546875 C 21.769531 -14.546875 22.324219 -14.328125 22.695312 -13.886719 C 23.066406 -13.445312 23.25 -12.96875 23.25 -12.457031 C 23.25 -11.945312 23.066406 -11.484375 22.695312 -11.070312 C 22.324219 -10.65625 21.769531 -10.453125 21.03125 -10.453125 L 7.378906 -10.453125 L 7.378906 -2.304688 C 7.378906 -1.5625 7.125 -0.996094 6.613281 -0.597656 C 6.101562 -0.199219 5.546875 0 4.949219 0 C 4.324219 0 3.753906 -0.199219 3.242188 -0.597656 C 2.730469 -0.996094 2.472656 -1.550781 2.472656 -2.261719 L 2.472656 -24.65625 C 2.472656 -25.339844 2.75 -25.929688 3.304688 -26.429688 C 3.859375 -26.925781 4.507812 -27.175781 5.246094 -27.175781 L 21.800781 -27.175781 C 22.566406 -27.175781 23.136719 -26.960938 23.503906 -26.535156 C 23.875 -26.109375 24.058594 -25.625 24.058594 -25.085938 C 24.058594 -24.570312 23.875 -24.101562 23.503906 -23.675781 C 23.136719 -23.25 22.566406 -23.035156 21.800781 -23.035156 Z M 7.378906 -23.035156 "/></g></g></g><g fill="#373643" fill-opacity="1"><g transform="translate(44.953893, 184.514328)"><g><path d="M 12.199219 -22.140625 C 14.476562 -22.140625 16.464844 -21.664062 18.171875 -20.710938 C 19.878906 -19.757812 21.203125 -18.429688 22.140625 -16.722656 C 23.078125 -15.015625 23.546875 -13.027344 23.546875 -10.75 C 23.519531 -8.53125 23.027344 -6.582031 22.078125 -4.90625 C 21.125 -3.226562 19.800781 -1.917969 18.109375 -0.980469 C 16.417969 -0.0429688 14.449219 0.425781 12.199219 0.425781 C 9.984375 0.425781 8.019531 -0.0429688 6.3125 -0.980469 C 4.605469 -1.917969 3.277344 -3.226562 2.324219 -4.90625 C 1.371094 -6.582031 0.882812 -8.53125 0.851562 -10.75 C 0.851562 -13.027344 1.328125 -15.015625 2.28125 -16.722656 C 3.234375 -18.429688 4.566406 -19.757812 6.269531 -20.710938 C 7.976562 -21.664062 9.953125 -22.140625 12.199219 -22.140625 Z M 12.199219 -3.839844 C 14.132812 -3.839844 15.675781 -4.480469 16.828125 -5.757812 C 17.980469 -7.039062 18.558594 -8.703125 18.558594 -10.75 C 18.558594 -12.855469 17.980469 -14.570312 16.828125 -15.890625 C 15.675781 -17.214844 14.132812 -17.875 12.199219 -17.875 C 10.296875 -17.875 8.757812 -17.214844 7.59375 -15.890625 C 6.425781 -14.570312 5.84375 -12.855469 5.84375 -10.75 C 5.84375 -8.703125 6.425781 -7.039062 7.59375 -5.757812 C 8.757812 -4.480469 10.296875 -3.839844 12.199219 -3.839844 Z M 12.199219 -3.839844 "/></g></g></g><g fill="#373643" fill-opacity="1"><g transform="translate(68.627827, 184.514328)"><g><path d="M 11.519531 -21.714844 C 12.285156 -21.714844 12.898438 -21.550781 13.351562 -21.222656 C 13.808594 -20.894531 14.035156 -20.363281 14.035156 -19.625 C 14.035156 -18.941406 13.808594 -18.402344 13.351562 -18.003906 C 12.898438 -17.605469 12.285156 -17.40625 11.519531 -17.40625 C 9.726562 -17.40625 8.46875 -16.765625 7.742188 -15.484375 C 7.015625 -14.207031 6.65625 -12.472656 6.65625 -10.28125 L 6.65625 -2.175781 C 6.65625 -1.550781 6.425781 -1.03125 5.972656 -0.617188 C 5.515625 -0.207031 4.960938 0 4.308594 0 C 3.570312 0 2.972656 -0.207031 2.515625 -0.617188 C 2.0625 -1.03125 1.835938 -1.550781 1.835938 -2.175781 L 1.835938 -19.539062 C 1.835938 -20.222656 2.097656 -20.753906 2.625 -21.136719 C 3.148438 -21.523438 3.710938 -21.714844 4.308594 -21.714844 C 4.90625 -21.714844 5.445312 -21.527344 5.929688 -21.160156 C 6.414062 -20.789062 6.65625 -20.25 6.65625 -19.539062 L 6.65625 -19.28125 C 7.28125 -20.105469 8.007812 -20.71875 8.832031 -21.117188 C 9.65625 -21.515625 10.550781 -21.714844 11.519531 -21.714844 Z M 11.519531 -21.714844 "/></g></g></g><g fill="#373643" fill-opacity="1"><g transform="translate(81.381763, 184.514328)"><g><path d="M 11.730469 -4.050781 C 12.386719 -4.421875 12.976562 -4.550781 13.5 -4.4375 C 14.027344 -4.324219 14.453125 -4.074219 14.78125 -3.691406 C 15.109375 -3.304688 15.273438 -2.859375 15.273438 -2.347656 C 15.273438 -1.976562 15.160156 -1.605469 14.929688 -1.238281 C 14.703125 -0.867188 14.347656 -0.554688 13.863281 -0.296875 C 13.238281 0.0429688 12.671875 0.25 12.15625 0.320312 C 11.644531 0.390625 11.050781 0.425781 10.367188 0.425781 C 8.519531 0.425781 7.097656 0.0429688 6.101562 -0.726562 C 5.105469 -1.492188 4.421875 -2.488281 4.050781 -3.710938 C 3.683594 -4.933594 3.5 -6.226562 3.5 -7.59375 L 3.5 -17.660156 L 1.878906 -17.660156 C 1.082031 -17.660156 0.492188 -17.875 0.105469 -18.300781 C -0.277344 -18.726562 -0.46875 -19.183594 -0.46875 -19.667969 C -0.46875 -20.179688 -0.269531 -20.648438 0.128906 -21.074219 C 0.527344 -21.5 1.109375 -21.714844 1.878906 -21.714844 L 3.5 -21.714844 L 3.5 -25.382812 C 3.5 -26.121094 3.738281 -26.675781 4.222656 -27.046875 C 4.707031 -27.417969 5.261719 -27.601562 5.886719 -27.601562 C 6.484375 -27.601562 7.039062 -27.417969 7.550781 -27.046875 C 8.0625 -26.675781 8.320312 -26.121094 8.320312 -25.382812 L 8.320312 -21.714844 L 11.644531 -21.714844 C 12.386719 -21.714844 12.953125 -21.5 13.351562 -21.074219 C 13.75 -20.648438 13.949219 -20.179688 13.949219 -19.667969 C 13.949219 -19.15625 13.75 -18.691406 13.351562 -18.28125 C 12.953125 -17.867188 12.386719 -17.660156 11.644531 -17.660156 L 8.320312 -17.660156 L 8.320312 -7.59375 C 8.320312 -6.96875 8.363281 -6.363281 8.445312 -5.78125 C 8.53125 -5.199219 8.722656 -4.714844 9.023438 -4.328125 C 9.320312 -3.945312 9.769531 -3.753906 10.367188 -3.753906 C 10.59375 -3.753906 10.84375 -3.789062 11.113281 -3.859375 C 11.382812 -3.933594 11.589844 -3.996094 11.730469 -4.050781 Z M 11.730469 -4.050781 "/></g></g></g><g fill="#373643" fill-opacity="1"><g transform="translate(96.183196, 184.514328)"><g><path d="M 14.121094 -22.140625 C 16.109375 -22.140625 17.804688 -21.707031 19.195312 -20.839844 C 20.589844 -19.972656 21.65625 -18.769531 22.398438 -17.234375 C 23.136719 -15.699219 23.503906 -13.90625 23.503906 -11.859375 L 23.503906 -2.21875 C 23.503906 -1.5625 23.300781 -1.03125 22.886719 -0.617188 C 22.476562 -0.207031 21.871094 0 21.074219 0 C 20.363281 0 19.78125 -0.207031 19.324219 -0.617188 C 18.871094 -1.03125 18.640625 -1.5625 18.640625 -2.21875 L 18.640625 -11.945312 C 18.640625 -13.707031 18.222656 -15.136719 17.382812 -16.230469 C 16.546875 -17.328125 15.230469 -17.875 13.4375 -17.875 C 12.898438 -17.875 12.265625 -17.753906 11.539062 -17.511719 C 10.8125 -17.269531 10.109375 -16.878906 9.429688 -16.339844 C 8.746094 -15.796875 8.175781 -15.101562 7.722656 -14.25 C 7.265625 -13.394531 7.039062 -12.34375 7.039062 -11.089844 L 7.039062 -2.21875 C 7.039062 -1.5625 6.832031 -1.03125 6.421875 -0.617188 C 6.007812 -0.207031 5.417969 0 4.648438 0 C 3.882812 0 3.269531 -0.207031 2.816406 -0.617188 C 2.359375 -1.03125 2.132812 -1.5625 2.132812 -2.21875 L 2.132812 -25.554688 C 2.132812 -26.207031 2.394531 -26.710938 2.921875 -27.066406 C 3.449219 -27.421875 4.011719 -27.601562 4.605469 -27.601562 C 5.234375 -27.601562 5.792969 -27.421875 6.292969 -27.066406 C 6.789062 -26.710938 7.039062 -26.207031 7.039062 -25.554688 L 7.039062 -19.75 C 8.203125 -20.746094 9.414062 -21.394531 10.664062 -21.691406 C 11.917969 -21.992188 13.066406 -22.140625 14.121094 -22.140625 Z M 14.121094 -22.140625 "/></g></g></g><g fill="#373643" fill-opacity="1"><g transform="translate(122.075257, 184.514328)"><g><path d="M 0.0429688 -18.515625 C -0.15625 -19.082031 -0.164062 -19.609375 0.0195312 -20.09375 C 0.207031 -20.578125 0.519531 -20.96875 0.960938 -21.265625 C 1.402344 -21.566406 1.863281 -21.714844 2.347656 -21.714844 C 2.859375 -21.714844 3.304688 -21.578125 3.691406 -21.308594 C 4.074219 -21.039062 4.367188 -20.675781 4.566406 -20.222656 L 11.089844 -6.996094 L 17.617188 -20.261719 C 17.875 -20.777344 18.207031 -21.144531 18.621094 -21.371094 C 19.035156 -21.601562 19.46875 -21.714844 19.921875 -21.714844 C 20.433594 -21.714844 20.894531 -21.578125 21.308594 -21.308594 C 21.722656 -21.039062 22.003906 -20.667969 22.160156 -20.199219 C 22.316406 -19.730469 22.238281 -19.183594 21.925781 -18.558594 L 13.222656 -0.894531 C 13.027344 -0.527344 12.726562 -0.214844 12.328125 0.0429688 C 11.929688 0.296875 11.488281 0.425781 11.007812 0.425781 C 10.066406 0.425781 9.355469 0.015625 8.875 -0.808594 Z M 0.0429688 -18.515625 "/></g></g></g><g fill="#373643" fill-opacity="1"><g transform="translate(144.12825, 184.514328)"><g><path d="M 6.398438 -24.914062 C 6.398438 -24.203125 6.136719 -23.667969 5.609375 -23.3125 C 5.082031 -22.957031 4.523438 -22.78125 3.925781 -22.78125 C 3.300781 -22.78125 2.730469 -22.957031 2.21875 -23.3125 C 1.707031 -23.667969 1.449219 -24.203125 1.449219 -24.914062 L 1.449219 -25.46875 C 1.449219 -26.207031 1.707031 -26.746094 2.21875 -27.089844 C 2.730469 -27.429688 3.300781 -27.601562 3.925781 -27.601562 C 4.523438 -27.601562 5.082031 -27.429688 5.609375 -27.089844 C 6.136719 -26.746094 6.398438 -26.207031 6.398438 -25.46875 Z M 1.492188 -19.625 C 1.492188 -20.304688 1.757812 -20.824219 2.28125 -21.179688 C 2.808594 -21.535156 3.355469 -21.714844 3.925781 -21.714844 C 4.523438 -21.714844 5.078125 -21.535156 5.589844 -21.179688 C 6.101562 -20.824219 6.355469 -20.320312 6.355469 -19.667969 L 6.355469 -2.089844 C 6.355469 -1.378906 6.101562 -0.851562 5.589844 -0.511719 C 5.078125 -0.171875 4.523438 0 3.925781 0 C 3.355469 0 2.808594 -0.171875 2.28125 -0.511719 C 1.757812 -0.851562 1.492188 -1.378906 1.492188 -2.089844 Z M 1.492188 -19.625 "/></g></g></g><g fill="#373643" fill-opacity="1"><g transform="translate(151.123599, 184.514328)"><g><path d="M 12.199219 -3.796875 C 13.027344 -3.796875 13.835938 -3.910156 14.632812 -4.136719 C 15.429688 -4.367188 16.167969 -4.75 16.851562 -5.289062 C 17.503906 -5.886719 18.144531 -6.164062 18.769531 -6.121094 C 19.394531 -6.078125 19.914062 -5.851562 20.328125 -5.4375 C 20.738281 -5.027344 20.945312 -4.515625 20.945312 -3.902344 C 20.945312 -3.292969 20.648438 -2.703125 20.050781 -2.132812 C 19.054688 -1.167969 17.875 -0.492188 16.507812 -0.105469 C 15.144531 0.277344 13.75 0.453125 12.328125 0.425781 C 10.109375 0.425781 8.15625 -0.0273438 6.464844 -0.9375 C 4.769531 -1.847656 3.449219 -3.113281 2.496094 -4.734375 C 1.542969 -6.355469 1.066406 -8.234375 1.066406 -10.367188 C 1.066406 -12.699219 1.523438 -14.746094 2.429688 -16.507812 C 3.339844 -18.273438 4.628906 -19.652344 6.292969 -20.648438 C 7.957031 -21.644531 9.925781 -22.140625 12.199219 -22.140625 C 14.476562 -22.140625 16.410156 -21.679688 18.003906 -20.753906 C 19.59375 -19.828125 20.8125 -18.535156 21.648438 -16.871094 C 22.488281 -15.207031 22.910156 -13.265625 22.910156 -11.050781 C 22.910156 -10.339844 22.765625 -9.734375 22.480469 -9.234375 C 22.199219 -8.738281 21.445312 -8.488281 20.222656 -8.488281 L 6.015625 -8.488281 C 6.414062 -7.097656 7.167969 -5.964844 8.277344 -5.097656 C 9.386719 -4.230469 10.695312 -3.796875 12.199219 -3.796875 Z M 12.242188 -17.917969 C 10.59375 -17.917969 9.214844 -17.398438 8.105469 -16.359375 C 6.996094 -15.320312 6.285156 -13.964844 5.972656 -12.285156 L 18.386719 -12.285156 C 18.246094 -13.964844 17.691406 -15.320312 16.722656 -16.359375 C 15.753906 -17.398438 14.261719 -17.917969 12.242188 -17.917969 Z M 12.242188 -17.917969 "/></g></g></g><g fill="#373643" fill-opacity="1"><g transform="translate(175.906591, 184.514328)"><g><path d="M 0.980469 -18.515625 C 0.726562 -19.113281 0.703125 -19.652344 0.917969 -20.136719 C 1.128906 -20.617188 1.464844 -21.003906 1.917969 -21.289062 C 2.375 -21.570312 2.84375 -21.714844 3.328125 -21.714844 C 3.8125 -21.714844 4.265625 -21.566406 4.691406 -21.265625 C 5.121094 -20.96875 5.402344 -20.632812 5.546875 -20.261719 L 11.089844 -7.59375 L 16.425781 -18.558594 C 16.625 -19.039062 16.921875 -19.402344 17.320312 -19.644531 C 17.71875 -19.886719 18.160156 -20.007812 18.640625 -20.007812 C 19.695312 -20.007812 20.449219 -19.539062 20.902344 -18.601562 L 26.277344 -7.507812 L 31.78125 -20.179688 C 32.238281 -21.203125 33.003906 -21.714844 34.085938 -21.714844 C 34.824219 -21.714844 35.457031 -21.410156 35.984375 -20.796875 C 36.511719 -20.183594 36.589844 -19.4375 36.21875 -18.558594 L 28.667969 -0.808594 C 28.355469 0.015625 27.628906 0.425781 26.492188 0.425781 C 26.007812 0.425781 25.558594 0.335938 25.148438 0.148438 C 24.734375 -0.0351562 24.414062 -0.339844 24.1875 -0.769531 L 18.726562 -12.328125 L 13.140625 -0.808594 C 12.742188 0.015625 11.972656 0.425781 10.835938 0.425781 C 10.351562 0.425781 9.925781 0.335938 9.554688 0.148438 C 9.1875 -0.0351562 8.886719 -0.371094 8.660156 -0.851562 Z M 0.980469 -18.515625 "/></g></g></g><g fill="#373643" fill-opacity="1"><g transform="translate(213.05989, 184.514328)"><g/></g></g><g fill="#373643" fill-opacity="1"><g transform="translate(223.083838, 184.514328)"><g><path d="M 12.585938 -27.175781 C 15.171875 -27.175781 17.433594 -26.605469 19.367188 -25.46875 C 21.300781 -24.332031 22.808594 -22.746094 23.890625 -20.710938 C 24.96875 -18.679688 25.511719 -16.296875 25.511719 -13.566406 C 25.511719 -10.863281 24.96875 -8.488281 23.890625 -6.441406 C 22.808594 -4.394531 21.300781 -2.808594 19.367188 -1.683594 C 17.433594 -0.5625 15.171875 0 12.585938 0 L 3.796875 0 C 3.027344 0 2.367188 -0.25 1.8125 -0.746094 C 1.257812 -1.246094 0.980469 -1.835938 0.980469 -2.515625 L 0.980469 -24.699219 C 0.980469 -25.382812 1.257812 -25.964844 1.8125 -26.449219 C 2.367188 -26.933594 3.027344 -27.175781 3.796875 -27.175781 Z M 12.585938 -4.222656 C 14.175781 -4.222656 15.578125 -4.613281 16.785156 -5.398438 C 17.996094 -6.179688 18.933594 -7.265625 19.601562 -8.660156 C 20.269531 -10.054688 20.605469 -11.6875 20.605469 -13.566406 C 20.605469 -15.441406 20.269531 -17.09375 19.601562 -18.515625 C 18.933594 -19.9375 17.996094 -21.039062 16.785156 -21.820312 C 15.578125 -22.601562 14.175781 -22.992188 12.585938 -22.992188 L 5.84375 -22.992188 L 5.84375 -4.222656 Z M 12.585938 -4.222656 "/></g></g></g><g fill="#373643" fill-opacity="1"><g transform="translate(249.487759, 184.514328)"><g><path d="M 12.199219 -3.796875 C 13.027344 -3.796875 13.835938 -3.910156 14.632812 -4.136719 C 15.429688 -4.367188 16.167969 -4.75 16.851562 -5.289062 C 17.503906 -5.886719 18.144531 -6.164062 18.769531 -6.121094 C 19.394531 -6.078125 19.914062 -5.851562 20.328125 -5.4375 C 20.738281 -5.027344 20.945312 -4.515625 20.945312 -3.902344 C 20.945312 -3.292969 20.648438 -2.703125 20.050781 -2.132812 C 19.054688 -1.167969 17.875 -0.492188 16.507812 -0.105469 C 15.144531 0.277344 13.75 0.453125 12.328125 0.425781 C 10.109375 0.425781 8.15625 -0.0273438 6.464844 -0.9375 C 4.769531 -1.847656 3.449219 -3.113281 2.496094 -4.734375 C 1.542969 -6.355469 1.066406 -8.234375 1.066406 -10.367188 C 1.066406 -12.699219 1.523438 -14.746094 2.429688 -16.507812 C 3.339844 -18.273438 4.628906 -19.652344 6.292969 -20.648438 C 7.957031 -21.644531 9.925781 -22.140625 12.199219 -22.140625 C 14.476562 -22.140625 16.410156 -21.679688 18.003906 -20.753906 C 19.59375 -19.828125 20.8125 -18.535156 21.648438 -16.871094 C 22.488281 -15.207031 22.910156 -13.265625 22.910156 -11.050781 C 22.910156 -10.339844 22.765625 -9.734375 22.480469 -9.234375 C 22.199219 -8.738281 21.445312 -8.488281 20.222656 -8.488281 L 6.015625 -8.488281 C 6.414062 -7.097656 7.167969 -5.964844 8.277344 -5.097656 C 9.386719 -4.230469 10.695312 -3.796875 12.199219 -3.796875 Z M 12.242188 -17.917969 C 10.59375 -17.917969 9.214844 -17.398438 8.105469 -16.359375 C 6.996094 -15.320312 6.285156 -13.964844 5.972656 -12.285156 L 18.386719 -12.285156 C 18.246094 -13.964844 17.691406 -15.320312 16.722656 -16.359375 C 15.753906 -17.398438 14.261719 -17.917969 12.242188 -17.917969 Z M 12.242188 -17.917969 "/></g></g></g><g fill="#373643" fill-opacity="1"><g transform="translate(274.270762, 184.514328)"><g><path d="M 0.554688 -5.078125 C 0.355469 -5.871094 0.539062 -6.511719 1.109375 -6.996094 C 1.679688 -7.480469 2.304688 -7.722656 2.984375 -7.722656 C 3.5 -7.722656 3.953125 -7.570312 4.351562 -7.273438 C 4.75 -6.976562 5.046875 -6.527344 5.246094 -5.929688 C 5.417969 -5.417969 5.789062 -5 6.355469 -4.671875 C 6.925781 -4.34375 7.585938 -4.109375 8.339844 -3.96875 C 9.09375 -3.824219 9.855469 -3.753906 10.621094 -3.753906 C 12.15625 -3.753906 13.394531 -4.03125 14.332031 -4.585938 C 15.273438 -5.140625 15.742188 -5.84375 15.742188 -6.699219 C 15.742188 -7.292969 15.492188 -7.734375 14.996094 -8.019531 C 14.496094 -8.304688 13.84375 -8.503906 13.03125 -8.617188 C 12.222656 -8.730469 11.363281 -8.816406 10.453125 -8.875 C 9.257812 -8.988281 8.085938 -9.128906 6.933594 -9.300781 C 5.78125 -9.46875 4.734375 -9.761719 3.796875 -10.175781 C 2.859375 -10.585938 2.105469 -11.199219 1.535156 -12.007812 C 0.96875 -12.820312 0.683594 -13.921875 0.683594 -15.316406 C 0.683594 -16.679688 1.082031 -17.875 1.878906 -18.898438 C 2.671875 -19.921875 3.796875 -20.71875 5.246094 -21.289062 C 6.699219 -21.855469 8.375 -22.140625 10.28125 -22.140625 C 11.390625 -22.140625 12.585938 -22.035156 13.863281 -21.820312 C 15.144531 -21.605469 16.332031 -21.171875 17.425781 -20.519531 C 18.523438 -19.867188 19.324219 -18.855469 19.835938 -17.492188 C 20.035156 -16.921875 20.023438 -16.417969 19.792969 -15.976562 C 19.566406 -15.535156 19.234375 -15.203125 18.792969 -14.972656 C 18.351562 -14.746094 17.902344 -14.632812 17.449219 -14.632812 C 16.9375 -14.632812 16.515625 -14.730469 16.191406 -14.929688 C 15.863281 -15.128906 15.585938 -15.472656 15.359375 -15.953125 C 15.101562 -16.550781 14.667969 -16.992188 14.054688 -17.277344 C 13.445312 -17.5625 12.789062 -17.738281 12.09375 -17.8125 C 11.398438 -17.882812 10.792969 -17.917969 10.28125 -17.917969 C 8.859375 -17.917969 7.714844 -17.675781 6.847656 -17.191406 C 5.980469 -16.707031 5.546875 -16.070312 5.546875 -15.273438 C 5.546875 -14.589844 5.773438 -14.128906 6.226562 -13.886719 C 6.683594 -13.644531 7.300781 -13.5 8.085938 -13.460938 C 8.867188 -13.417969 9.742188 -13.339844 10.707031 -13.222656 C 11.902344 -13.082031 13.082031 -12.925781 14.25 -12.753906 C 15.414062 -12.585938 16.480469 -12.292969 17.449219 -11.878906 C 18.414062 -11.46875 19.183594 -10.855469 19.75 -10.046875 C 20.320312 -9.234375 20.605469 -8.121094 20.605469 -6.699219 C 20.605469 -5.304688 20.183594 -4.066406 19.347656 -2.984375 C 18.507812 -1.90625 17.339844 -1.066406 15.847656 -0.46875 C 14.355469 0.128906 12.613281 0.425781 10.621094 0.425781 C 9.742188 0.425781 8.78125 0.363281 7.742188 0.234375 C 6.703125 0.105469 5.695312 -0.148438 4.714844 -0.535156 C 3.734375 -0.917969 2.871094 -1.472656 2.132812 -2.195312 C 1.394531 -2.921875 0.867188 -3.882812 0.554688 -5.078125 Z M 0.554688 -5.078125 "/></g></g></g><g fill="#373643" fill-opacity="1"><g transform="translate(295.47062, 184.514328)"><g><path d="M 6.398438 -24.914062 C 6.398438 -24.203125 6.136719 -23.667969 5.609375 -23.3125 C 5.082031 -22.957031 4.523438 -22.78125 3.925781 -22.78125 C 3.300781 -22.78125 2.730469 -22.957031 2.21875 -23.3125 C 1.707031 -23.667969 1.449219 -24.203125 1.449219 -24.914062 L 1.449219 -25.46875 C 1.449219 -26.207031 1.707031 -26.746094 2.21875 -27.089844 C 2.730469 -27.429688 3.300781 -27.601562 3.925781 -27.601562 C 4.523438 -27.601562 5.082031 -27.429688 5.609375 -27.089844 C 6.136719 -26.746094 6.398438 -26.207031 6.398438 -25.46875 Z M 1.492188 -19.625 C 1.492188 -20.304688 1.757812 -20.824219 2.28125 -21.179688 C 2.808594 -21.535156 3.355469 -21.714844 3.925781 -21.714844 C 4.523438 -21.714844 5.078125 -21.535156 5.589844 -21.179688 C 6.101562 -20.824219 6.355469 -20.320312 6.355469 -19.667969 L 6.355469 -2.089844 C 6.355469 -1.378906 6.101562 -0.851562 5.589844 -0.511719 C 5.078125 -0.171875 4.523438 0 3.925781 0 C 3.355469 0 2.808594 -0.171875 2.28125 -0.511719 C 1.757812 -0.851562 1.492188 -1.378906 1.492188 -2.089844 Z M 1.492188 -19.625 "/></g></g></g><g fill="#373643" fill-opacity="1"><g transform="translate(302.465981, 184.514328)"><g><path d="M 19.921875 -21.714844 C 20.660156 -21.714844 21.257812 -21.472656 21.714844 -20.988281 C 22.167969 -20.503906 22.398438 -19.9375 22.398438 -19.28125 L 22.398438 -1.324219 C 22.398438 0.753906 21.914062 2.503906 20.945312 3.925781 C 19.980469 5.347656 18.683594 6.414062 17.0625 7.125 C 15.441406 7.835938 13.636719 8.191406 11.644531 8.191406 C 9.996094 8.191406 8.503906 7.976562 7.167969 7.550781 C 5.832031 7.125 4.578125 6.371094 3.414062 5.289062 C 2.84375 4.722656 2.574219 4.136719 2.601562 3.539062 C 2.628906 2.945312 2.859375 2.429688 3.285156 2.003906 C 3.710938 1.578125 4.230469 1.335938 4.84375 1.28125 C 5.453125 1.222656 6.042969 1.449219 6.613281 1.960938 C 7.492188 2.730469 8.3125 3.226562 9.066406 3.457031 C 9.820312 3.683594 10.679688 3.796875 11.644531 3.796875 C 12.671875 3.796875 13.636719 3.617188 14.546875 3.261719 C 15.457031 2.90625 16.195312 2.347656 16.765625 1.578125 C 17.335938 0.808594 17.617188 -0.15625 17.617188 -1.324219 L 17.617188 -1.707031 C 16.652344 -0.996094 15.597656 -0.460938 14.460938 -0.105469 C 13.324219 0.25 12.257812 0.425781 11.261719 0.425781 C 9.214844 0.425781 7.414062 -0.0429688 5.867188 -0.980469 C 4.316406 -1.917969 3.105469 -3.242188 2.238281 -4.949219 C 1.371094 -6.65625 0.9375 -8.644531 0.9375 -10.921875 C 0.9375 -13.140625 1.378906 -15.085938 2.261719 -16.765625 C 3.144531 -18.441406 4.371094 -19.757812 5.949219 -20.710938 C 7.53125 -21.664062 9.355469 -22.140625 11.433594 -22.140625 C 12.398438 -22.140625 13.429688 -22 14.527344 -21.714844 C 15.621094 -21.429688 16.652344 -20.933594 17.617188 -20.222656 C 17.929688 -21.214844 18.699219 -21.714844 19.921875 -21.714844 Z M 11.390625 -3.882812 C 12.699219 -3.882812 13.941406 -4.167969 15.121094 -4.734375 C 16.304688 -5.304688 17.121094 -6.15625 17.574219 -7.292969 L 17.574219 -14.417969 C 17.035156 -15.5 16.21875 -16.339844 15.121094 -16.9375 C 14.027344 -17.535156 12.910156 -17.832031 11.773438 -17.832031 C 9.984375 -17.832031 8.539062 -17.179688 7.445312 -15.871094 C 6.347656 -14.5625 5.800781 -12.898438 5.800781 -10.878906 C 5.800781 -8.773438 6.3125 -7.082031 7.335938 -5.800781 C 8.363281 -4.523438 9.710938 -3.882812 11.390625 -3.882812 Z M 11.390625 -3.882812 "/></g></g></g><g fill="#373643" fill-opacity="1"><g transform="translate(327.206321, 184.514328)"><g><path d="M 14.375 -22.140625 C 16.367188 -22.140625 18.058594 -21.707031 19.453125 -20.839844 C 20.847656 -19.972656 21.914062 -18.769531 22.652344 -17.234375 C 23.390625 -15.699219 23.761719 -13.90625 23.761719 -11.859375 L 23.761719 -2.21875 C 23.761719 -1.5625 23.546875 -1.03125 23.121094 -0.617188 C 22.695312 -0.207031 22.097656 0 21.328125 0 C 20.617188 0 20.035156 -0.207031 19.582031 -0.617188 C 19.125 -1.03125 18.898438 -1.5625 18.898438 -2.21875 L 18.898438 -11.945312 C 18.898438 -13.707031 18.480469 -15.136719 17.640625 -16.230469 C 16.800781 -17.328125 15.472656 -17.875 13.652344 -17.875 C 13.109375 -17.875 12.464844 -17.726562 11.710938 -17.425781 C 10.957031 -17.128906 10.21875 -16.679688 9.492188 -16.082031 C 8.765625 -15.484375 8.167969 -14.730469 7.699219 -13.820312 C 7.230469 -12.910156 6.996094 -11.832031 6.996094 -10.578125 L 6.996094 -2.175781 C 6.996094 -0.726562 6.214844 0 4.648438 0 C 3.910156 0 3.304688 -0.191406 2.835938 -0.574219 C 2.367188 -0.960938 2.132812 -1.492188 2.132812 -2.175781 L 2.132812 -19.539062 C 2.132812 -20.25 2.382812 -20.789062 2.878906 -21.160156 C 3.378906 -21.527344 3.9375 -21.714844 4.566406 -21.714844 C 5.160156 -21.714844 5.714844 -21.527344 6.226562 -21.160156 C 6.742188 -20.789062 6.996094 -20.277344 6.996094 -19.625 L 6.996094 -19.324219 C 8.21875 -20.460938 9.484375 -21.214844 10.792969 -21.585938 C 12.101562 -21.957031 13.296875 -22.140625 14.375 -22.140625 Z M 14.375 -22.140625 "/></g></g></g><g fill="#373643" fill-opacity="1"><g transform="translate(50.632439, 211.498448)"><g><path d="M 15.722656 -12.277344 L 12.332031 0 L 11.472656 0 L 8.117188 -11.054688 L 4.703125 0 L 3.882812 0 L 0.542969 -12.277344 L 1.382812 -12.277344 L 4.320312 -1.101562 L 7.695312 -12.277344 L 8.570312 -12.277344 L 11.910156 -1.03125 L 14.867188 -12.277344 Z M 15.722656 -12.277344 "/></g></g></g><g fill="#373643" fill-opacity="1"><g transform="translate(66.210674, 211.498448)"><g><path d="M 9.988281 -5.386719 C 9.988281 -4.96875 9.976562 -4.652344 9.953125 -4.441406 L 1.75 -4.441406 C 1.773438 -3.589844 1.957031 -2.875 2.308594 -2.292969 C 2.660156 -1.707031 3.117188 -1.269531 3.691406 -0.980469 C 4.261719 -0.6875 4.886719 -0.542969 5.5625 -0.542969 C 6.496094 -0.542969 7.277344 -0.773438 7.90625 -1.234375 C 8.535156 -1.695312 8.929688 -2.320312 9.09375 -3.113281 L 9.917969 -3.113281 C 9.730469 -2.144531 9.253906 -1.359375 8.484375 -0.761719 C 7.714844 -0.160156 6.738281 0.140625 5.5625 0.140625 C 4.675781 0.140625 3.882812 -0.0585938 3.183594 -0.453125 C 2.484375 -0.851562 1.9375 -1.417969 1.539062 -2.160156 C 1.144531 -2.902344 0.945312 -3.765625 0.945312 -4.757812 C 0.945312 -5.75 1.140625 -6.609375 1.53125 -7.347656 C 1.921875 -8.082031 2.464844 -8.644531 3.164062 -9.035156 C 3.867188 -9.425781 4.664062 -9.621094 5.5625 -9.621094 C 6.472656 -9.621094 7.261719 -9.425781 7.933594 -9.035156 C 8.601562 -8.644531 9.113281 -8.125 9.460938 -7.476562 C 9.8125 -6.828125 9.988281 -6.132812 9.988281 -5.386719 Z M 9.199219 -5.089844 C 9.234375 -5.929688 9.085938 -6.640625 8.753906 -7.222656 C 8.421875 -7.804688 7.96875 -8.242188 7.398438 -8.527344 C 6.828125 -8.8125 6.207031 -8.953125 5.542969 -8.953125 C 4.878906 -8.953125 4.265625 -8.8125 3.699219 -8.527344 C 3.132812 -8.242188 2.671875 -7.804688 2.316406 -7.222656 C 1.960938 -6.640625 1.773438 -5.929688 1.75 -5.089844 Z M 9.199219 -5.089844 "/></g></g></g><g fill="#373643" fill-opacity="1"><g transform="translate(76.473643, 211.498448)"><g><path d="M 2.222656 -6.996094 C 2.511719 -7.765625 3.007812 -8.394531 3.707031 -8.886719 C 4.40625 -9.375 5.253906 -9.621094 6.242188 -9.621094 C 7.128906 -9.621094 7.921875 -9.421875 8.613281 -9.023438 C 9.308594 -8.628906 9.851562 -8.0625 10.242188 -7.328125 C 10.632812 -6.59375 10.828125 -5.738281 10.828125 -4.757812 C 10.828125 -3.777344 10.632812 -2.917969 10.242188 -2.175781 C 9.851562 -1.4375 9.308594 -0.867188 8.613281 -0.464844 C 7.921875 -0.0625 7.128906 0.140625 6.242188 0.140625 C 5.253906 0.140625 4.40625 -0.105469 3.699219 -0.59375 C 2.992188 -1.085938 2.5 -1.714844 2.222656 -2.484375 L 2.222656 0 L 1.433594 0 L 1.433594 -12.941406 L 2.222656 -12.941406 Z M 10.023438 -4.757812 C 10.023438 -5.621094 9.859375 -6.367188 9.53125 -6.996094 C 9.207031 -7.625 8.746094 -8.105469 8.160156 -8.4375 C 7.570312 -8.769531 6.890625 -8.9375 6.121094 -8.9375 C 5.386719 -8.9375 4.722656 -8.765625 4.128906 -8.421875 C 3.53125 -8.078125 3.066406 -7.585938 2.726562 -6.953125 C 2.390625 -6.316406 2.222656 -5.585938 2.222656 -4.757812 C 2.222656 -3.917969 2.390625 -3.179688 2.726562 -2.542969 C 3.066406 -1.910156 3.53125 -1.417969 4.128906 -1.074219 C 4.722656 -0.730469 5.386719 -0.558594 6.121094 -0.558594 C 6.890625 -0.558594 7.570312 -0.730469 8.160156 -1.066406 C 8.746094 -1.40625 9.207031 -1.890625 9.53125 -2.519531 C 9.859375 -3.148438 10.023438 -3.894531 10.023438 -4.757812 Z M 10.023438 -4.757812 "/></g></g></g><g fill="#373643" fill-opacity="1"><g transform="translate(87.575865, 211.498448)"><g><path d="M 4.601562 0.140625 C 3.539062 0.140625 2.671875 -0.09375 2.003906 -0.558594 C 1.332031 -1.027344 0.957031 -1.691406 0.875 -2.554688 L 1.679688 -2.554688 C 1.738281 -1.9375 2.019531 -1.445312 2.527344 -1.085938 C 3.035156 -0.722656 3.726562 -0.542969 4.601562 -0.542969 C 5.324219 -0.542969 5.898438 -0.726562 6.324219 -1.09375 C 6.75 -1.460938 6.960938 -1.914062 6.960938 -2.449219 C 6.960938 -2.820312 6.847656 -3.128906 6.621094 -3.367188 C 6.394531 -3.605469 6.109375 -3.789062 5.773438 -3.917969 C 5.433594 -4.046875 4.972656 -4.1875 4.390625 -4.335938 C 3.691406 -4.523438 3.125 -4.707031 2.695312 -4.886719 C 2.261719 -5.070312 1.894531 -5.339844 1.589844 -5.703125 C 1.289062 -6.0625 1.136719 -6.546875 1.136719 -7.152344 C 1.136719 -7.597656 1.269531 -8.007812 1.539062 -8.386719 C 1.808594 -8.765625 2.179688 -9.066406 2.660156 -9.289062 C 3.136719 -9.507812 3.679688 -9.621094 4.285156 -9.621094 C 5.277344 -9.621094 6.078125 -9.371094 6.691406 -8.875 C 7.300781 -8.378906 7.632812 -7.695312 7.679688 -6.820312 L 6.890625 -6.820312 C 6.855469 -7.449219 6.609375 -7.964844 6.15625 -8.359375 C 5.703125 -8.757812 5.070312 -8.953125 4.265625 -8.953125 C 3.589844 -8.953125 3.03125 -8.78125 2.589844 -8.429688 C 2.144531 -8.082031 1.925781 -7.65625 1.925781 -7.152344 C 1.925781 -6.710938 2.050781 -6.351562 2.300781 -6.078125 C 2.550781 -5.804688 2.859375 -5.59375 3.226562 -5.449219 C 3.59375 -5.300781 4.082031 -5.148438 4.6875 -4.984375 C 5.351562 -4.808594 5.886719 -4.636719 6.289062 -4.46875 C 6.691406 -4.300781 7.03125 -4.054688 7.3125 -3.734375 C 7.589844 -3.414062 7.730469 -2.984375 7.730469 -2.449219 C 7.730469 -1.957031 7.597656 -1.515625 7.328125 -1.121094 C 7.058594 -0.722656 6.6875 -0.414062 6.207031 -0.191406 C 5.730469 0.0273438 5.195312 0.140625 4.601562 0.140625 Z M 4.601562 0.140625 "/></g></g></g><g fill="#373643" fill-opacity="1"><g transform="translate(95.600828, 211.498448)"><g><path d="M 1.835938 -11.613281 C 1.648438 -11.613281 1.492188 -11.675781 1.363281 -11.796875 C 1.234375 -11.917969 1.171875 -12.085938 1.171875 -12.296875 C 1.171875 -12.492188 1.234375 -12.65625 1.363281 -12.785156 C 1.492188 -12.914062 1.648438 -12.976562 1.835938 -12.976562 C 2.023438 -12.976562 2.179688 -12.914062 2.308594 -12.785156 C 2.4375 -12.65625 2.5 -12.492188 2.5 -12.296875 C 2.5 -12.085938 2.4375 -11.917969 2.308594 -11.796875 C 2.179688 -11.675781 2.023438 -11.613281 1.835938 -11.613281 Z M 2.222656 -9.496094 L 2.222656 0 L 1.433594 0 L 1.433594 -9.496094 Z M 2.222656 -9.496094 "/></g></g></g><g fill="#373643" fill-opacity="1"><g transform="translate(98.607762, 211.498448)"><g><path d="M 2.605469 -8.816406 L 2.605469 -2.535156 C 2.605469 -1.835938 2.734375 -1.355469 2.992188 -1.09375 C 3.246094 -0.832031 3.703125 -0.699219 4.355469 -0.699219 L 5.421875 -0.699219 L 5.421875 0 L 4.234375 0 C 3.40625 0 2.796875 -0.195312 2.40625 -0.585938 C 2.015625 -0.976562 1.820312 -1.625 1.820312 -2.535156 L 1.820312 -8.816406 L 0.386719 -8.816406 L 0.386719 -9.496094 L 1.820312 -9.496094 L 1.820312 -11.910156 L 2.605469 -11.910156 L 2.605469 -9.496094 L 5.421875 -9.496094 L 5.421875 -8.816406 Z M 2.605469 -8.816406 "/></g></g></g><g fill="#373643" fill-opacity="1"><g transform="translate(104.01006, 211.498448)"><g><path d="M 9.988281 -5.386719 C 9.988281 -4.96875 9.976562 -4.652344 9.953125 -4.441406 L 1.75 -4.441406 C 1.773438 -3.589844 1.957031 -2.875 2.308594 -2.292969 C 2.660156 -1.707031 3.117188 -1.269531 3.691406 -0.980469 C 4.261719 -0.6875 4.886719 -0.542969 5.5625 -0.542969 C 6.496094 -0.542969 7.277344 -0.773438 7.90625 -1.234375 C 8.535156 -1.695312 8.929688 -2.320312 9.09375 -3.113281 L 9.917969 -3.113281 C 9.730469 -2.144531 9.253906 -1.359375 8.484375 -0.761719 C 7.714844 -0.160156 6.738281 0.140625 5.5625 0.140625 C 4.675781 0.140625 3.882812 -0.0585938 3.183594 -0.453125 C 2.484375 -0.851562 1.9375 -1.417969 1.539062 -2.160156 C 1.144531 -2.902344 0.945312 -3.765625 0.945312 -4.757812 C 0.945312 -5.75 1.140625 -6.609375 1.53125 -7.347656 C 1.921875 -8.082031 2.464844 -8.644531 3.164062 -9.035156 C 3.867188 -9.425781 4.664062 -9.621094 5.5625 -9.621094 C 6.472656 -9.621094 7.261719 -9.425781 7.933594 -9.035156 C 8.601562 -8.644531 9.113281 -8.125 9.460938 -7.476562 C 9.8125 -6.828125 9.988281 -6.132812 9.988281 -5.386719 Z M 9.199219 -5.089844 C 9.234375 -5.929688 9.085938 -6.640625 8.753906 -7.222656 C 8.421875 -7.804688 7.96875 -8.242188 7.398438 -8.527344 C 6.828125 -8.8125 6.207031 -8.953125 5.542969 -8.953125 C 4.878906 -8.953125 4.265625 -8.8125 3.699219 -8.527344 C 3.132812 -8.242188 2.671875 -7.804688 2.316406 -7.222656 C 1.960938 -6.640625 1.773438 -5.929688 1.75 -5.089844 Z M 9.199219 -5.089844 "/></g></g></g><g fill="#373643" fill-opacity="1"><g transform="translate(114.273029, 211.498448)"><g/></g></g><g fill="#373643" fill-opacity="1"><g transform="translate(118.538837, 211.498448)"><g><path d="M 0.945312 -4.757812 C 0.945312 -5.738281 1.140625 -6.59375 1.53125 -7.328125 C 1.921875 -8.0625 2.464844 -8.628906 3.15625 -9.023438 C 3.851562 -9.421875 4.640625 -9.621094 5.527344 -9.621094 C 6.496094 -9.621094 7.335938 -9.378906 8.046875 -8.894531 C 8.757812 -8.410156 9.257812 -7.78125 9.550781 -7.011719 L 9.550781 -12.941406 L 10.335938 -12.941406 L 10.335938 0 L 9.550781 0 L 9.550781 -2.519531 C 9.269531 -1.738281 8.78125 -1.097656 8.082031 -0.601562 C 7.378906 -0.109375 6.53125 0.140625 5.527344 0.140625 C 4.640625 0.140625 3.851562 -0.0625 3.15625 -0.464844 C 2.464844 -0.867188 1.921875 -1.4375 1.53125 -2.175781 C 1.140625 -2.917969 0.945312 -3.777344 0.945312 -4.757812 Z M 9.550781 -4.757812 C 9.550781 -5.585938 9.378906 -6.316406 9.035156 -6.953125 C 8.691406 -7.585938 8.21875 -8.078125 7.625 -8.421875 C 7.03125 -8.765625 6.367188 -8.9375 5.632812 -8.9375 C 4.863281 -8.9375 4.1875 -8.769531 3.601562 -8.4375 C 3.019531 -8.105469 2.566406 -7.625 2.238281 -6.996094 C 1.914062 -6.367188 1.75 -5.621094 1.75 -4.757812 C 1.75 -3.894531 1.914062 -3.148438 2.238281 -2.519531 C 2.566406 -1.890625 3.023438 -1.40625 3.613281 -1.066406 C 4.199219 -0.730469 4.875 -0.558594 5.632812 -0.558594 C 6.367188 -0.558594 7.035156 -0.730469 7.632812 -1.074219 C 8.234375 -1.417969 8.703125 -1.910156 9.042969 -2.542969 C 9.378906 -3.179688 9.550781 -3.917969 9.550781 -4.757812 Z M 9.550781 -4.757812 "/></g></g></g><g fill="#373643" fill-opacity="1"><g transform="translate(129.641059, 211.498448)"><g><path d="M 9.988281 -5.386719 C 9.988281 -4.96875 9.976562 -4.652344 9.953125 -4.441406 L 1.75 -4.441406 C 1.773438 -3.589844 1.957031 -2.875 2.308594 -2.292969 C 2.660156 -1.707031 3.117188 -1.269531 3.691406 -0.980469 C 4.261719 -0.6875 4.886719 -0.542969 5.5625 -0.542969 C 6.496094 -0.542969 7.277344 -0.773438 7.90625 -1.234375 C 8.535156 -1.695312 8.929688 -2.320312 9.09375 -3.113281 L 9.917969 -3.113281 C 9.730469 -2.144531 9.253906 -1.359375 8.484375 -0.761719 C 7.714844 -0.160156 6.738281 0.140625 5.5625 0.140625 C 4.675781 0.140625 3.882812 -0.0585938 3.183594 -0.453125 C 2.484375 -0.851562 1.9375 -1.417969 1.539062 -2.160156 C 1.144531 -2.902344 0.945312 -3.765625 0.945312 -4.757812 C 0.945312 -5.75 1.140625 -6.609375 1.53125 -7.347656 C 1.921875 -8.082031 2.464844 -8.644531 3.164062 -9.035156 C 3.867188 -9.425781 4.664062 -9.621094 5.5625 -9.621094 C 6.472656 -9.621094 7.261719 -9.425781 7.933594 -9.035156 C 8.601562 -8.644531 9.113281 -8.125 9.460938 -7.476562 C 9.8125 -6.828125 9.988281 -6.132812 9.988281 -5.386719 Z M 9.199219 -5.089844 C 9.234375 -5.929688 9.085938 -6.640625 8.753906 -7.222656 C 8.421875 -7.804688 7.96875 -8.242188 7.398438 -8.527344 C 6.828125 -8.8125 6.207031 -8.953125 5.542969 -8.953125 C 4.878906 -8.953125 4.265625 -8.8125 3.699219 -8.527344 C 3.132812 -8.242188 2.671875 -7.804688 2.316406 -7.222656 C 1.960938 -6.640625 1.773438 -5.929688 1.75 -5.089844 Z M 9.199219 -5.089844 "/></g></g></g><g fill="#373643" fill-opacity="1"><g transform="translate(139.904028, 211.498448)"><g><path d="M 4.652344 -0.855469 L 8.148438 -9.496094 L 8.988281 -9.496094 L 5.054688 0 L 4.234375 0 L 0.296875 -9.496094 L 1.15625 -9.496094 Z M 4.652344 -0.855469 "/></g></g></g><g fill="#373643" fill-opacity="1"><g transform="translate(148.523455, 211.498448)"><g><path d="M 9.988281 -5.386719 C 9.988281 -4.96875 9.976562 -4.652344 9.953125 -4.441406 L 1.75 -4.441406 C 1.773438 -3.589844 1.957031 -2.875 2.308594 -2.292969 C 2.660156 -1.707031 3.117188 -1.269531 3.691406 -0.980469 C 4.261719 -0.6875 4.886719 -0.542969 5.5625 -0.542969 C 6.496094 -0.542969 7.277344 -0.773438 7.90625 -1.234375 C 8.535156 -1.695312 8.929688 -2.320312 9.09375 -3.113281 L 9.917969 -3.113281 C 9.730469 -2.144531 9.253906 -1.359375 8.484375 -0.761719 C 7.714844 -0.160156 6.738281 0.140625 5.5625 0.140625 C 4.675781 0.140625 3.882812 -0.0585938 3.183594 -0.453125 C 2.484375 -0.851562 1.9375 -1.417969 1.539062 -2.160156 C 1.144531 -2.902344 0.945312 -3.765625 0.945312 -4.757812 C 0.945312 -5.75 1.140625 -6.609375 1.53125 -7.347656 C 1.921875 -8.082031 2.464844 -8.644531 3.164062 -9.035156 C 3.867188 -9.425781 4.664062 -9.621094 5.5625 -9.621094 C 6.472656 -9.621094 7.261719 -9.425781 7.933594 -9.035156 C 8.601562 -8.644531 9.113281 -8.125 9.460938 -7.476562 C 9.8125 -6.828125 9.988281 -6.132812 9.988281 -5.386719 Z M 9.199219 -5.089844 C 9.234375 -5.929688 9.085938 -6.640625 8.753906 -7.222656 C 8.421875 -7.804688 7.96875 -8.242188 7.398438 -8.527344 C 6.828125 -8.8125 6.207031 -8.953125 5.542969 -8.953125 C 4.878906 -8.953125 4.265625 -8.8125 3.699219 -8.527344 C 3.132812 -8.242188 2.671875 -7.804688 2.316406 -7.222656 C 1.960938 -6.640625 1.773438 -5.929688 1.75 -5.089844 Z M 9.199219 -5.089844 "/></g></g></g><g fill="#373643" fill-opacity="1"><g transform="translate(158.786424, 211.498448)"><g><path d="M 1.433594 -12.941406 L 2.222656 -12.941406 L 2.222656 0 L 1.433594 0 Z M 1.433594 -12.941406 "/></g></g></g><g fill="#373643" fill-opacity="1"><g transform="translate(161.793359, 211.498448)"><g><path d="M 5.613281 0.140625 C 4.726562 0.140625 3.929688 -0.0585938 3.21875 -0.453125 C 2.507812 -0.851562 1.949219 -1.417969 1.546875 -2.160156 C 1.144531 -2.902344 0.945312 -3.765625 0.945312 -4.757812 C 0.945312 -5.738281 1.148438 -6.597656 1.554688 -7.335938 C 1.964844 -8.078125 2.527344 -8.644531 3.246094 -9.035156 C 3.960938 -9.425781 4.761719 -9.621094 5.648438 -9.621094 C 6.535156 -9.621094 7.335938 -9.425781 8.046875 -9.035156 C 8.757812 -8.644531 9.3125 -8.082031 9.714844 -7.347656 C 10.117188 -6.609375 10.320312 -5.75 10.320312 -4.757812 C 10.320312 -3.765625 10.113281 -2.902344 9.707031 -2.160156 C 9.300781 -1.417969 8.734375 -0.851562 8.019531 -0.453125 C 7.300781 -0.0585938 6.5 0.140625 5.613281 0.140625 Z M 5.613281 -0.558594 C 6.300781 -0.558594 6.945312 -0.714844 7.546875 -1.023438 C 8.148438 -1.332031 8.628906 -1.800781 8.988281 -2.429688 C 9.351562 -3.0625 9.53125 -3.835938 9.53125 -4.757812 C 9.53125 -5.667969 9.351562 -6.4375 8.988281 -7.066406 C 8.628906 -7.695312 8.148438 -8.164062 7.554688 -8.472656 C 6.960938 -8.78125 6.320312 -8.9375 5.632812 -8.9375 C 4.945312 -8.9375 4.304688 -8.78125 3.714844 -8.472656 C 3.128906 -8.164062 2.652344 -7.695312 2.292969 -7.066406 C 1.929688 -6.4375 1.75 -5.667969 1.75 -4.757812 C 1.75 -3.835938 1.925781 -3.0625 2.28125 -2.429688 C 2.636719 -1.800781 3.109375 -1.332031 3.699219 -1.023438 C 4.289062 -0.714844 4.925781 -0.558594 5.613281 -0.558594 Z M 5.613281 -0.558594 "/></g></g></g><g fill="#373643" fill-opacity="1"><g transform="translate(172.406014, 211.498448)"><g><path d="M 2.222656 -6.996094 C 2.488281 -7.765625 2.976562 -8.394531 3.683594 -8.886719 C 4.386719 -9.375 5.242188 -9.621094 6.242188 -9.621094 C 7.128906 -9.621094 7.921875 -9.421875 8.613281 -9.023438 C 9.308594 -8.628906 9.851562 -8.0625 10.242188 -7.328125 C 10.632812 -6.59375 10.828125 -5.738281 10.828125 -4.757812 C 10.828125 -3.777344 10.632812 -2.917969 10.242188 -2.175781 C 9.851562 -1.4375 9.308594 -0.867188 8.613281 -0.464844 C 7.921875 -0.0625 7.128906 0.140625 6.242188 0.140625 C 5.253906 0.140625 4.40625 -0.109375 3.699219 -0.601562 C 2.992188 -1.097656 2.5 -1.726562 2.222656 -2.484375 L 2.222656 4.476562 L 1.433594 4.476562 L 1.433594 -9.496094 L 2.222656 -9.496094 Z M 10.023438 -4.757812 C 10.023438 -5.621094 9.859375 -6.367188 9.53125 -6.996094 C 9.207031 -7.625 8.746094 -8.105469 8.160156 -8.4375 C 7.570312 -8.769531 6.890625 -8.9375 6.121094 -8.9375 C 5.386719 -8.9375 4.722656 -8.765625 4.128906 -8.421875 C 3.53125 -8.078125 3.066406 -7.585938 2.726562 -6.953125 C 2.390625 -6.316406 2.222656 -5.585938 2.222656 -4.757812 C 2.222656 -3.917969 2.390625 -3.179688 2.726562 -2.542969 C 3.066406 -1.910156 3.53125 -1.417969 4.128906 -1.074219 C 4.722656 -0.730469 5.386719 -0.558594 6.121094 -0.558594 C 6.890625 -0.558594 7.570312 -0.730469 8.160156 -1.066406 C 8.746094 -1.40625 9.207031 -1.890625 9.53125 -2.519531 C 9.859375 -3.148438 10.023438 -3.894531 10.023438 -4.757812 Z M 10.023438 -4.757812 "/></g></g></g><g fill="#373643" fill-opacity="1"><g transform="translate(183.508235, 211.498448)"><g><path d="M 12.664062 -9.691406 C 13.746094 -9.691406 14.632812 -9.34375 15.320312 -8.648438 C 16.007812 -7.953125 16.351562 -6.925781 16.351562 -5.5625 L 16.351562 0 L 15.582031 0 L 15.582031 -5.507812 C 15.582031 -6.640625 15.3125 -7.507812 14.769531 -8.105469 C 14.226562 -8.707031 13.484375 -9.007812 12.539062 -9.007812 C 11.5625 -9.007812 10.773438 -8.667969 10.179688 -7.992188 C 9.585938 -7.316406 9.289062 -6.335938 9.289062 -5.054688 L 9.289062 0 L 8.519531 0 L 8.519531 -5.507812 C 8.519531 -6.640625 8.246094 -7.507812 7.703125 -8.105469 C 7.164062 -8.707031 6.417969 -9.007812 5.472656 -9.007812 C 4.496094 -9.007812 3.707031 -8.667969 3.113281 -7.992188 C 2.519531 -7.316406 2.222656 -6.335938 2.222656 -5.054688 L 2.222656 0 L 1.433594 0 L 1.433594 -9.496094 L 2.222656 -9.496094 L 2.222656 -7.433594 C 2.488281 -8.179688 2.921875 -8.742188 3.523438 -9.121094 C 4.125 -9.5 4.816406 -9.691406 5.597656 -9.691406 C 6.460938 -9.691406 7.203125 -9.464844 7.828125 -9.015625 C 8.449219 -8.566406 8.878906 -7.90625 9.113281 -7.03125 C 9.332031 -7.90625 9.765625 -8.566406 10.40625 -9.015625 C 11.046875 -9.464844 11.800781 -9.691406 12.664062 -9.691406 Z M 12.664062 -9.691406 "/></g></g></g><g fill="#373643" fill-opacity="1"><g transform="translate(200.555159, 211.498448)"><g><path d="M 9.988281 -5.386719 C 9.988281 -4.96875 9.976562 -4.652344 9.953125 -4.441406 L 1.75 -4.441406 C 1.773438 -3.589844 1.957031 -2.875 2.308594 -2.292969 C 2.660156 -1.707031 3.117188 -1.269531 3.691406 -0.980469 C 4.261719 -0.6875 4.886719 -0.542969 5.5625 -0.542969 C 6.496094 -0.542969 7.277344 -0.773438 7.90625 -1.234375 C 8.535156 -1.695312 8.929688 -2.320312 9.09375 -3.113281 L 9.917969 -3.113281 C 9.730469 -2.144531 9.253906 -1.359375 8.484375 -0.761719 C 7.714844 -0.160156 6.738281 0.140625 5.5625 0.140625 C 4.675781 0.140625 3.882812 -0.0585938 3.183594 -0.453125 C 2.484375 -0.851562 1.9375 -1.417969 1.539062 -2.160156 C 1.144531 -2.902344 0.945312 -3.765625 0.945312 -4.757812 C 0.945312 -5.75 1.140625 -6.609375 1.53125 -7.347656 C 1.921875 -8.082031 2.464844 -8.644531 3.164062 -9.035156 C 3.867188 -9.425781 4.664062 -9.621094 5.5625 -9.621094 C 6.472656 -9.621094 7.261719 -9.425781 7.933594 -9.035156 C 8.601562 -8.644531 9.113281 -8.125 9.460938 -7.476562 C 9.8125 -6.828125 9.988281 -6.132812 9.988281 -5.386719 Z M 9.199219 -5.089844 C 9.234375 -5.929688 9.085938 -6.640625 8.753906 -7.222656 C 8.421875 -7.804688 7.96875 -8.242188 7.398438 -8.527344 C 6.828125 -8.8125 6.207031 -8.953125 5.542969 -8.953125 C 4.878906 -8.953125 4.265625 -8.8125 3.699219 -8.527344 C 3.132812 -8.242188 2.671875 -7.804688 2.316406 -7.222656 C 1.960938 -6.640625 1.773438 -5.929688 1.75 -5.089844 Z M 9.199219 -5.089844 "/></g></g></g><g fill="#373643" fill-opacity="1"><g transform="translate(210.818128, 211.498448)"><g><path d="M 5.71875 -9.691406 C 6.851562 -9.691406 7.769531 -9.34375 8.484375 -8.648438 C 9.195312 -7.953125 9.550781 -6.925781 9.550781 -5.5625 L 9.550781 0 L 8.78125 0 L 8.78125 -5.507812 C 8.78125 -6.640625 8.496094 -7.507812 7.921875 -8.105469 C 7.351562 -8.707031 6.578125 -9.007812 5.597656 -9.007812 C 4.570312 -9.007812 3.75 -8.679688 3.140625 -8.027344 C 2.527344 -7.375 2.222656 -6.40625 2.222656 -5.125 L 2.222656 0 L 1.433594 0 L 1.433594 -9.496094 L 2.222656 -9.496094 L 2.222656 -7.484375 C 2.488281 -8.195312 2.933594 -8.742188 3.558594 -9.121094 C 4.183594 -9.5 4.902344 -9.691406 5.71875 -9.691406 Z M 5.71875 -9.691406 "/></g></g></g><g fill="#373643" fill-opacity="1"><g transform="translate(221.046125, 211.498448)"><g><path d="M 2.605469 -8.816406 L 2.605469 -2.535156 C 2.605469 -1.835938 2.734375 -1.355469 2.992188 -1.09375 C 3.246094 -0.832031 3.703125 -0.699219 4.355469 -0.699219 L 5.421875 -0.699219 L 5.421875 0 L 4.234375 0 C 3.40625 0 2.796875 -0.195312 2.40625 -0.585938 C 2.015625 -0.976562 1.820312 -1.625 1.820312 -2.535156 L 1.820312 -8.816406 L 0.386719 -8.816406 L 0.386719 -9.496094 L 1.820312 -9.496094 L 1.820312 -11.910156 L 2.605469 -11.910156 L 2.605469 -9.496094 L 5.421875 -9.496094 L 5.421875 -8.816406 Z M 2.605469 -8.816406 "/></g></g></g><g fill="#373643" fill-opacity="1"><g transform="translate(226.448422, 211.498448)"><g/></g></g><g fill="#373643" fill-opacity="1"><g transform="translate(230.71423, 211.498448)"><g><path d="M 10.617188 -4.25 C 10.195312 -3.515625 9.792969 -2.890625 9.410156 -2.378906 L 11.71875 0 L 10.722656 0 L 8.953125 -1.800781 C 8.359375 -1.113281 7.726562 -0.609375 7.058594 -0.289062 C 6.386719 0.03125 5.625 0.191406 4.773438 0.191406 C 3.992188 0.191406 3.292969 0.0390625 2.675781 -0.269531 C 2.058594 -0.582031 1.578125 -1.011719 1.234375 -1.566406 C 0.890625 -2.121094 0.71875 -2.757812 0.71875 -3.480469 C 0.71875 -4.355469 0.964844 -5.109375 1.460938 -5.746094 C 1.957031 -6.382812 2.675781 -6.878906 3.621094 -7.242188 C 3.164062 -7.71875 2.835938 -8.164062 2.632812 -8.578125 C 2.429688 -8.992188 2.324219 -9.433594 2.324219 -9.898438 C 2.324219 -10.644531 2.589844 -11.25 3.121094 -11.71875 C 3.652344 -12.183594 4.347656 -12.417969 5.210938 -12.417969 C 5.726562 -12.417969 6.199219 -12.3125 6.628906 -12.101562 C 7.058594 -11.894531 7.398438 -11.597656 7.644531 -11.210938 C 7.886719 -10.828125 8.011719 -10.378906 8.011719 -9.863281 L 7.222656 -9.863281 C 7.222656 -10.449219 7.023438 -10.90625 6.628906 -11.246094 C 6.230469 -11.585938 5.753906 -11.753906 5.195312 -11.753906 C 4.578125 -11.753906 4.074219 -11.582031 3.691406 -11.238281 C 3.304688 -10.894531 3.113281 -10.449219 3.113281 -9.898438 C 3.113281 -9.492188 3.21875 -9.105469 3.429688 -8.734375 C 3.636719 -8.367188 3.96875 -7.953125 4.425781 -7.484375 L 8.886719 -2.902344 C 9.210938 -3.371094 9.578125 -3.941406 9.988281 -4.617188 L 10.964844 -6.3125 L 11.804688 -6.3125 Z M 4.773438 -0.507812 C 5.519531 -0.507812 6.183594 -0.652344 6.761719 -0.945312 C 7.335938 -1.234375 7.894531 -1.703125 8.429688 -2.34375 L 4.128906 -6.714844 L 4.074219 -6.699219 C 2.359375 -6.070312 1.503906 -5.003906 1.503906 -3.496094 C 1.503906 -2.925781 1.644531 -2.414062 1.925781 -1.957031 C 2.203125 -1.503906 2.589844 -1.148438 3.085938 -0.890625 C 3.582031 -0.636719 4.144531 -0.507812 4.773438 -0.507812 Z M 4.773438 -0.507812 "/></g></g></g><g fill="#373643" fill-opacity="1"><g transform="translate(242.218597, 211.498448)"><g/></g></g><g fill="#373643" fill-opacity="1"><g transform="translate(246.484416, 211.498448)"><g><path d="M 12.890625 -12.015625 L 12.890625 0 L 12.101562 0 L 12.101562 -10.371094 L 7.484375 0 L 6.855469 0 L 2.222656 -10.371094 L 2.222656 0 L 1.433594 0 L 1.433594 -12.015625 L 2.273438 -12.015625 L 7.171875 -1.03125 L 12.066406 -12.015625 Z M 12.890625 -12.015625 "/></g></g></g><g fill="#373643" fill-opacity="1"><g transform="translate(260.156832, 211.498448)"><g><path d="M 0.945312 -4.757812 C 0.945312 -5.738281 1.140625 -6.59375 1.53125 -7.328125 C 1.921875 -8.0625 2.464844 -8.628906 3.15625 -9.023438 C 3.851562 -9.421875 4.640625 -9.621094 5.527344 -9.621094 C 6.53125 -9.621094 7.378906 -9.375 8.082031 -8.886719 C 8.78125 -8.394531 9.269531 -7.769531 9.550781 -7.011719 L 9.550781 -9.496094 L 10.335938 -9.496094 L 10.335938 0 L 9.550781 0 L 9.550781 -2.5 C 9.269531 -1.730469 8.777344 -1.097656 8.070312 -0.601562 C 7.367188 -0.109375 6.519531 0.140625 5.527344 0.140625 C 4.640625 0.140625 3.851562 -0.0625 3.15625 -0.464844 C 2.464844 -0.867188 1.921875 -1.4375 1.53125 -2.175781 C 1.140625 -2.917969 0.945312 -3.777344 0.945312 -4.757812 Z M 9.550781 -4.757812 C 9.550781 -5.585938 9.378906 -6.316406 9.035156 -6.953125 C 8.691406 -7.585938 8.21875 -8.078125 7.625 -8.421875 C 7.03125 -8.765625 6.367188 -8.9375 5.632812 -8.9375 C 4.863281 -8.9375 4.1875 -8.769531 3.601562 -8.4375 C 3.019531 -8.105469 2.566406 -7.625 2.238281 -6.996094 C 1.914062 -6.367188 1.75 -5.621094 1.75 -4.757812 C 1.75 -3.894531 1.914062 -3.148438 2.238281 -2.519531 C 2.566406 -1.890625 3.023438 -1.40625 3.613281 -1.066406 C 4.199219 -0.730469 4.875 -0.558594 5.632812 -0.558594 C 6.367188 -0.558594 7.035156 -0.730469 7.632812 -1.074219 C 8.234375 -1.417969 8.703125 -1.910156 9.042969 -2.542969 C 9.378906 -3.179688 9.550781 -3.917969 9.550781 -4.757812 Z M 9.550781 -4.757812 "/></g></g></g><g fill="#373643" fill-opacity="1"><g transform="translate(271.259042, 211.498448)"><g><path d="M 2.222656 -7.539062 C 2.453125 -8.238281 2.867188 -8.769531 3.464844 -9.136719 C 4.058594 -9.503906 4.816406 -9.691406 5.738281 -9.691406 L 5.738281 -8.867188 L 5.472656 -8.867188 C 4.542969 -8.867188 3.765625 -8.601562 3.148438 -8.070312 C 2.53125 -7.542969 2.222656 -6.675781 2.222656 -5.472656 L 2.222656 0 L 1.433594 0 L 1.433594 -9.496094 L 2.222656 -9.496094 Z M 2.222656 -7.539062 "/></g></g></g><g fill="#373643" fill-opacity="1"><g transform="translate(276.7138, 211.498448)"><g><path d="M 6.367188 0 L 2.222656 -4.355469 L 2.222656 0 L 1.433594 0 L 1.433594 -12.941406 L 2.222656 -12.941406 L 2.222656 -5.195312 L 6.296875 -9.496094 L 7.398438 -9.496094 L 2.796875 -4.773438 L 7.449219 0 Z M 6.367188 0 "/></g></g></g><g fill="#373643" fill-opacity="1"><g transform="translate(283.689706, 211.498448)"><g><path d="M 9.988281 -5.386719 C 9.988281 -4.96875 9.976562 -4.652344 9.953125 -4.441406 L 1.75 -4.441406 C 1.773438 -3.589844 1.957031 -2.875 2.308594 -2.292969 C 2.660156 -1.707031 3.117188 -1.269531 3.691406 -0.980469 C 4.261719 -0.6875 4.886719 -0.542969 5.5625 -0.542969 C 6.496094 -0.542969 7.277344 -0.773438 7.90625 -1.234375 C 8.535156 -1.695312 8.929688 -2.320312 9.09375 -3.113281 L 9.917969 -3.113281 C 9.730469 -2.144531 9.253906 -1.359375 8.484375 -0.761719 C 7.714844 -0.160156 6.738281 0.140625 5.5625 0.140625 C 4.675781 0.140625 3.882812 -0.0585938 3.183594 -0.453125 C 2.484375 -0.851562 1.9375 -1.417969 1.539062 -2.160156 C 1.144531 -2.902344 0.945312 -3.765625 0.945312 -4.757812 C 0.945312 -5.75 1.140625 -6.609375 1.53125 -7.347656 C 1.921875 -8.082031 2.464844 -8.644531 3.164062 -9.035156 C 3.867188 -9.425781 4.664062 -9.621094 5.5625 -9.621094 C 6.472656 -9.621094 7.261719 -9.425781 7.933594 -9.035156 C 8.601562 -8.644531 9.113281 -8.125 9.460938 -7.476562 C 9.8125 -6.828125 9.988281 -6.132812 9.988281 -5.386719 Z M 9.199219 -5.089844 C 9.234375 -5.929688 9.085938 -6.640625 8.753906 -7.222656 C 8.421875 -7.804688 7.96875 -8.242188 7.398438 -8.527344 C 6.828125 -8.8125 6.207031 -8.953125 5.542969 -8.953125 C 4.878906 -8.953125 4.265625 -8.8125 3.699219 -8.527344 C 3.132812 -8.242188 2.671875 -7.804688 2.316406 -7.222656 C 1.960938 -6.640625 1.773438 -5.929688 1.75 -5.089844 Z M 9.199219 -5.089844 "/></g></g></g><g fill="#373643" fill-opacity="1"><g transform="translate(293.952675, 211.498448)"><g><path d="M 2.605469 -8.816406 L 2.605469 -2.535156 C 2.605469 -1.835938 2.734375 -1.355469 2.992188 -1.09375 C 3.246094 -0.832031 3.703125 -0.699219 4.355469 -0.699219 L 5.421875 -0.699219 L 5.421875 0 L 4.234375 0 C 3.40625 0 2.796875 -0.195312 2.40625 -0.585938 C 2.015625 -0.976562 1.820312 -1.625 1.820312 -2.535156 L 1.820312 -8.816406 L 0.386719 -8.816406 L 0.386719 -9.496094 L 1.820312 -9.496094 L 1.820312 -11.910156 L 2.605469 -11.910156 L 2.605469 -9.496094 L 5.421875 -9.496094 L 5.421875 -8.816406 Z M 2.605469 -8.816406 "/></g></g></g><g fill="#373643" fill-opacity="1"><g transform="translate(299.354973, 211.498448)"><g><path d="M 1.835938 -11.613281 C 1.648438 -11.613281 1.492188 -11.675781 1.363281 -11.796875 C 1.234375 -11.917969 1.171875 -12.085938 1.171875 -12.296875 C 1.171875 -12.492188 1.234375 -12.65625 1.363281 -12.785156 C 1.492188 -12.914062 1.648438 -12.976562 1.835938 -12.976562 C 2.023438 -12.976562 2.179688 -12.914062 2.308594 -12.785156 C 2.4375 -12.65625 2.5 -12.492188 2.5 -12.296875 C 2.5 -12.085938 2.4375 -11.917969 2.308594 -11.796875 C 2.179688 -11.675781 2.023438 -11.613281 1.835938 -11.613281 Z M 2.222656 -9.496094 L 2.222656 0 L 1.433594 0 L 1.433594 -9.496094 Z M 2.222656 -9.496094 "/></g></g></g><g fill="#373643" fill-opacity="1"><g transform="translate(302.361885, 211.498448)"><g><path d="M 5.71875 -9.691406 C 6.851562 -9.691406 7.769531 -9.34375 8.484375 -8.648438 C 9.195312 -7.953125 9.550781 -6.925781 9.550781 -5.5625 L 9.550781 0 L 8.78125 0 L 8.78125 -5.507812 C 8.78125 -6.640625 8.496094 -7.507812 7.921875 -8.105469 C 7.351562 -8.707031 6.578125 -9.007812 5.597656 -9.007812 C 4.570312 -9.007812 3.75 -8.679688 3.140625 -8.027344 C 2.527344 -7.375 2.222656 -6.40625 2.222656 -5.125 L 2.222656 0 L 1.433594 0 L 1.433594 -9.496094 L 2.222656 -9.496094 L 2.222656 -7.484375 C 2.488281 -8.195312 2.933594 -8.742188 3.558594 -9.121094 C 4.183594 -9.5 4.902344 -9.691406 5.71875 -9.691406 Z M 5.71875 -9.691406 "/></g></g></g><g fill="#373643" fill-opacity="1"><g transform="translate(312.589881, 211.498448)"><g><path d="M 5.527344 -9.621094 C 6.53125 -9.621094 7.378906 -9.378906 8.082031 -8.894531 C 8.78125 -8.410156 9.269531 -7.789062 9.550781 -7.03125 L 9.550781 -9.496094 L 10.335938 -9.496094 L 10.335938 0.296875 C 10.335938 1.171875 10.144531 1.9375 9.757812 2.597656 C 9.375 3.257812 8.855469 3.761719 8.203125 4.117188 C 7.550781 4.472656 6.820312 4.652344 6.015625 4.652344 C 4.828125 4.652344 3.84375 4.367188 3.0625 3.796875 C 2.28125 3.222656 1.765625 2.453125 1.523438 1.488281 L 2.308594 1.488281 C 2.542969 2.246094 2.980469 2.847656 3.621094 3.296875 C 4.261719 3.746094 5.058594 3.96875 6.015625 3.96875 C 6.679688 3.96875 7.28125 3.820312 7.816406 3.523438 C 8.355469 3.226562 8.777344 2.800781 9.085938 2.246094 C 9.394531 1.695312 9.550781 1.042969 9.550781 0.296875 L 9.550781 -2.484375 C 9.269531 -1.726562 8.777344 -1.097656 8.070312 -0.601562 C 7.367188 -0.109375 6.519531 0.140625 5.527344 0.140625 C 4.640625 0.140625 3.851562 -0.0625 3.15625 -0.464844 C 2.464844 -0.867188 1.921875 -1.4375 1.53125 -2.175781 C 1.140625 -2.917969 0.945312 -3.777344 0.945312 -4.757812 C 0.945312 -5.738281 1.140625 -6.59375 1.53125 -7.328125 C 1.921875 -8.0625 2.464844 -8.628906 3.15625 -9.023438 C 3.851562 -9.421875 4.640625 -9.621094 5.527344 -9.621094 Z M 9.550781 -4.757812 C 9.550781 -5.585938 9.378906 -6.316406 9.035156 -6.953125 C 8.691406 -7.585938 8.21875 -8.078125 7.625 -8.421875 C 7.03125 -8.765625 6.367188 -8.9375 5.632812 -8.9375 C 4.863281 -8.9375 4.1875 -8.769531 3.601562 -8.4375 C 3.019531 -8.105469 2.566406 -7.625 2.238281 -6.996094 C 1.914062 -6.367188 1.75 -5.621094 1.75 -4.757812 C 1.75 -3.894531 1.914062 -3.148438 2.238281 -2.519531 C 2.566406 -1.890625 3.023438 -1.40625 3.613281 -1.066406 C 4.199219 -0.730469 4.875 -0.558594 5.632812 -0.558594 C 6.367188 -0.558594 7.035156 -0.730469 7.632812 -1.074219 C 8.234375 -1.417969 8.703125 -1.910156 9.042969 -2.542969 C 9.378906 -3.179688 9.550781 -3.917969 9.550781 -4.757812 Z M 9.550781 -4.757812 "/></g></g></g></svg>